<?xml version="1.0" encoding="iso-8859-1"?>
<!-- Generator: Adobe Illustrator 19.0.0, SVG Export Plug-In . SVG Version: 6.00 Build 0)  -->
<svg version="1.1" id="Capa_1" xmlns="http://www.w3.org/2000/svg" xmlns:xlink="http://www.w3.org/1999/xlink" x="0px" y="0px"
	 viewBox="0 0 512 512" style="enable-background:new 0 0 512 512;" xml:space="preserve">
<g>
	<g>
		<path d="M61,195h30c0-6.123,11.689-15,30-15c18.311,0,30,8.877,30,15v-30c0-54.597,22.722-113.871,56.063-152.373
			C121.875,40.422,61,111.575,61,195z"/>
	</g>
</g>
<g>
	<g>
		<path d="M286,0c-61.009,0-105,98.941-105,165v30c0-3.735,15.967-15,45-15s45,11.265,45,15h30c0-3.735,15.967-15,45-15
			c29.033,0,45,11.265,45,15v-30C391,90.557,343.891,0,286,0z"/>
	</g>
</g>
<g>
	<g>
		<path d="M511.949,194.606c-0.174-85.896-63.884-154.889-146.252-181.88C399.154,51.422,421,110.471,421,165v30
			c0-6.123,11.689-15,30-15c18.237,0,30.872,8.8,30.967,14.921c0,0.026,0.004,0.053,0.004,0.079H482h29.971H512
			C512,194.865,511.951,194.742,511.949,194.606z"/>
	</g>
</g>
<g>
	<g>
		<path d="M361,422v30c0,16.538-13.462,30-30,30c-16.538,0-30-13.462-30-30V225h-30v227c0,33.091,26.909,60,60,60s60-26.909,60-60
			v-30H361z"/>
	</g>
</g>
<g>
	<g>
		<path d="M121,272C54.725,272,0,325.725,0,392c0,66.273,54.725,120,121,120s120-53.727,120-120C241,325.725,187.275,272,121,272z
			 M121,377c24.814,0,45,20.186,45,45c0,19.53-12.578,36.024-30,42.237V497h-30v-32.763C88.578,458.024,76,441.53,76,422h30
			c0,8.276,6.724,15,15,15s15-6.724,15-15s-6.724-15-15-15c-24.814,0-45-20.186-45-45c0-19.53,12.578-36.024,30-42.237V287h30
			v32.763c17.422,6.213,30,22.707,30,42.237h-30c0-8.276-6.724-15-15-15s-15,6.724-15,15S112.724,377,121,377z"/>
	</g>
</g>
<g>
</g>
<g>
</g>
<g>
</g>
<g>
</g>
<g>
</g>
<g>
</g>
<g>
</g>
<g>
</g>
<g>
</g>
<g>
</g>
<g>
</g>
<g>
</g>
<g>
</g>
<g>
</g>
<g>
</g>
</svg>
