<svg fill="none" height="24" viewBox="0 0 24 24" width="24" xmlns="http://www.w3.org/2000/svg"><g clip-rule="evenodd" fill="#fff" fill-rule="evenodd"><path d="m7.19995 5.17999c-.59674 0-1.16903.23706-1.59099.65901-.42196.42196-.65901.99426-.65901 1.59099v5.82971c.0003.4918.16177.9704.45971 1.3618.2939.3861.70461.6666 1.17072.8001.38891.0866.73701.3034.9863.615.25401.3175.38947.7135.38327 1.1199v1.3098l2.41185-2.4288c.3259-.3233.7659-.5056 1.225-.5075h.0032 5.21c.5967 0 1.169-.2371 1.5909-.659.422-.422.6591-.9943.6591-1.591v-5.85001c0-.59673-.2371-1.16903-.6591-1.59099-.4219-.42195-.9942-.65901-1.5909-.65901zm-2.65165-.40165c.70326-.70326 1.65709-1.09835 2.65165-1.09835h9.60005c.9945 0 1.9483.39509 2.6516 1.09835s1.0983 1.65709 1.0983 2.65165v5.85001c0 .9946-.395 1.9484-1.0983 2.6516-.7033.7033-1.6571 1.0984-2.6516 1.0984h-5.2079c-.0646.0005-.1265.0261-.1726.0712l-2.84449 2.8644c-.17624.1728-.39972.2895-.64219.3354-.24246.046-.49311.0192-.72037-.077-.22725-.0963-.42092-.2577-.55661-.4638-.1352-.2054-.20681-.4461-.20589-.6919l.00001-.0027.74999.0044h-.75v-.0017-1.9259l.00015-.0075c.00118-.0585-.01818-.1156-.05473-.1612-.03654-.0457-.08795-.0771-.14527-.0888l-.02528-.0052-.02487-.0069c-.7903-.2186-1.48714-.6903-1.98382-1.3428-.49667-.6524-.76581-1.4497-.76618-2.2697v-5.83031c0-.99456.39509-1.94839 1.09835-2.65165z"/><path d="m8.99995 9.27999c.55229 0 1 .44772 1 1.00001v.01c0 .5523-.44771 1-1 1-.55228 0-1-.4477-1-1v-.01c0-.55229.44772-1.00001 1-1.00001z"/><path d="m12 9.27999c.5522 0 1 .44772 1 1.00001v.01c0 .5523-.4478 1-1 1-.5523 0-1-.4477-1-1v-.01c0-.55229.4477-1.00001 1-1.00001z"/><path d="m15 9.27999c.5522 0 1 .44772 1 1.00001v.01c0 .5523-.4478 1-1 1-.5523 0-1-.4477-1-1v-.01c0-.55229.4477-1.00001 1-1.00001z"/></g></svg>