<svg fill="none" height="24" viewBox="0 0 24 24" width="24" xmlns="http://www.w3.org/2000/svg"><path d="m22.875 13.32h-.8775c-.2963 0-.5475-.345-.5475-.75v-5.67003c0-.41625.27-.78.5775-.78h.8475c.1989 0 .3897-.07902.5303-.21967.1407-.14065.2197-.33142.2197-.53033s-.079-.38968-.2197-.53033c-.1406-.14065-.3314-.21967-.5303-.21967h-.8475c-.3667.00478-.7253.1083-1.0381.29968-.3128.19137-.5682.46353-.7394.78782h-4.9088l-.7162-.62625c-.6372-.5711-1.4033-.97927-2.2327-1.18957-.8294-.21029-1.6975-.21645-2.5298-.01793-2.1.5325-3.4875 2.22375-3.97125 2.92125h-.75c.00841-.55694-.20016-1.09531-.58158-1.50123-.38142-.40591-.90579-.64754-1.46217-.67377h-1.9725c-.198912 0-.389678.07902-.53033.21967s-.21967.33142-.21967.53033.079018.38968.21967.53033.331418.21967.53033.21967h1.965c.29625 0 .5475.34125.5475.75v5.66623c0 .4163-.27.7838-.5775.7838h-1.935c-.198912 0-.389678.079-.53033.2196-.140652.1407-.21967.3315-.21967.5304s.079018.3896.21967.5303.331418.2197.53033.2197h1.935c.36457-.0076.72051-.1124 1.03102-.3036.31052-.1912.56434-.4618.73523-.7839h.2625c.28505.0005.56521.0741.81375.2137-.019.1016-.01682.206.00641.3066.02323.1007.06701.1955.12859.2784l.86625 1.1588c.10199.1325.24404.2285.405.2737l1.1475.3075.51375 1.095c.04598.0982.1127.1853.19557.2552.08286.0699.1799.121.28443.1498l1.2075.33.7838 1.245c.0988.1572.2525.2721.4312.3225l2.0887.5813c.0659.0192.134.0293.2026.03.1228.0002.2438-.0298.3524-.0874.1085-.0575.2013-.1408.2701-.2426l3.9187-5.82c.0344-.0509.0808-.0926.135-.1214.0543-.0287.1148-.0437.1762-.0436h1.3763c.1804.2597.4201.4727.6992.6214s.5896.2287.9058.2336h.8775c.1989 0 .3897-.079.5303-.2197.1407-.1407.2197-.3314.2197-.5303s-.079-.3897-.2197-.5304c-.1406-.1406-.3314-.2196-.5303-.2196zm-15.7725-5.65503c.40125-.56625 1.5-1.9275 3.1275-2.34.5975-.13796 1.2194-.12954 1.8129.02454.5935.15409 1.141.44928 1.5958.86046l1.5338 1.335c.1867.14273.3104.35256.345.585.0029.05852-.0062.11701-.0269.17184-.0206.05483-.0523.10484-.0931.14691l-.6375.6825c-.162.17532-.3836.28399-.6214.30479s-.4748-.04776-.6648-.19229l-.1501-.1125c-.4641-.35094-1.0397-.52189-1.6202-.48121-.5805.04067-1.1266.29022-1.5372.70246l-3.3113 3.42373c-.50726-.3448-1.10424-.5338-1.7175-.5437v-3.93753h.75c.23798-.0011.47227-.05881.68354-.16835.21127-.10955.39344-.26779.53146-.46165zm10.3612 5.62503-3.6187 5.37-1.29-.375-.7838-1.245c-.0997-.158-.2548-.273-.435-.3225l-1.155-.315-.51745-1.0988c-.04598-.0982-.1127-.1852-.19557-.2551-.08286-.07-.1799-.1211-.28443-.1499l-1.23375-.33-.33-.4387 3.6075-3.75c.1563-.1539.3627-.2465.5816-.261.2189-.0144.4357.0502.6109.1822l.15.1125c.4867.3674 1.0924.5413 1.6999.488.6075-.0534 1.1736-.3301 1.5889-.7767l.6412-.65253c.1783-.18946.3164-.41305.406-.65731s.1288-.50413.1152-.76394c-.0156-.29474-.0949-.58259-.2324-.84375h3.1612v5.25003h-.9338c-.3071.0009-.6093.0774-.8801.2225-.2707.1452-.5016.3547-.6724.61z" fill="#fff"/></svg>