<svg fill="none" height="96" viewBox="0 0 96 96" width="96" xmlns="http://www.w3.org/2000/svg"><g clip-rule="evenodd" fill="#fff" fill-rule="evenodd"><path d="m25.225 17.8962c-2.0917-2.0902-5.4817-2.0896-7.5727.0014-2.0923 2.0923-2.0914 5.4848.002 7.576l3.7837 3.7796 7.5801-7.5666zm6.7807 6.7779-2.2859 2.2818 42.1241 41.6521 2.0491-2.0204zm44.0108 45.7531-2.6757 2.6382-3.1683 3.257 9.1234 3.2731zm-9.6674 3.7664-41.9233-41.9531 2.3037-2.2997 42.1371 41.6648zm-51.6807-45.7309c-3.7449-3.7409-3.7465-9.8098-.0036-13.5527 3.7405-3.7405 9.8048-3.7416 13.5467-.0024l50.1733 50.1978c.2207.2208.3897.4878.4949.7818l5.9 16.4949c.2752.7694.0821 1.6284-.496 2.2059-.578.5775-1.4373.7699-2.2064.494l-16.4213-5.8912c-.2937-.1053-.5604-.2745-.7809-.4952z"/><path d="m69.3508 11.5894c1.4959-.48 3.1058-.471 4.5962.0256.978.3259 1.785.8905 2.5574 1.5596.7391.6403 1.5731 1.4917 2.566 2.5054l1.4564 1.4869c.9753.9956 1.7952 1.8325 2.4108 2.5726.644.7741 1.1847 1.5795 1.4918 2.5486.4686 1.4787.4602 3.0674-.024 4.5411-.3172.9657-.8665 1.7654-1.5186 2.5327-.6233.7334-1.452 1.5617-2.4377 2.5469l-19.0834 19.0747c-.8251.8248-2.1627.8245-2.9875-.0006-.8248-.8252-.8245-2.1628.0007-2.9876l19.0237-19.0151c1.0609-1.0605 1.7661-1.7676 2.2649-2.3545.4826-.5679.6482-.8844.724-1.1152.2075-.6316.2111-1.3125.0103-1.9462-.0734-.2316-.2356-.5499-.7122-1.1228-.4926-.5921-1.1902-1.3067-2.24-2.3783l-1.3377-1.3657c-1.0683-1.0906-1.7814-1.8162-2.3739-2.3295-.574-.4972-.8941-.6672-1.1266-.7446-.6388-.2129-1.3287-.2167-1.9698-.011-.2333.0749-.5554.2412-1.1348.732-.5982.5066-1.3194 1.2243-2.3998 2.3029l-1.1559 1.154 2.1353 2.3304c.7882.8602.7298 2.1964-.1304 2.9846-.8601.7882-2.1964.7299-2.9846-.1303l-2.013-2.1969-5.5492 5.54 2.4712 2.4082c.8356.8142.8528 2.1517.0386 2.9872-.8143.8356-2.1517.8529-2.9873.0386l-2.5128-2.4487-6.4764 6.4657c-.8257.8243-2.1632.8232-2.9875-.0024-.8243-.8257-.8232-2.1632.0024-2.9875l19.2251-19.1934c1.0041-1.0024 1.8475-1.8444 2.5936-2.4764.7799-.6605 1.5931-1.2161 2.5747-1.531zm-31.9101 33.6901c.8243.8257.8232 2.1632-.0025 2.9875l-9.0202 9.0054 2.0199 1.9273c.8441.8054.8755 2.1426.0701 2.9867s-2.1426.8755-2.9867.0701l-2.0942-1.9982-4.3348 4.3276 1.8694 1.9485c.8077.8419.78 2.1792-.0619 2.9869s-2.1792.78-2.9869-.0619l-1.8111-1.8878c-.9217.9212-1.5563 1.5641-2.0168 2.1059-.4903.5768-.657.8977-.7323 1.1305-.207.6393-.2054 1.3277.0046 1.966.0764.2325.2446.5526.7376 1.1271.5091.5933 1.2291 1.3077 2.3115 2.3783l1.3886 1.3733c1.0707 1.059 1.7848 1.763 2.377 2.2603.5731.4813.8917.6453 1.1235.7196.6349.2036 1.3177.2018 1.9515-.0052.2314-.0755.5492-.2412 1.1197-.7255.5895-.5004 1.2999-1.2082 2.3651-2.2728l19.0367-19.0282c.8252-.8248 2.1627-.8245 2.9875.0007s.8245 2.1627-.0006 2.9875l-19.0965 19.0878c-.9897.9893-1.8215 1.8208-2.558 2.446-.7702.6538-1.573 1.2042-2.5423 1.5208-1.4788.4829-3.0722.4871-4.5534.012-.971-.3114-1.7768-.8576-2.5504-1.5073-.7397-.6213-1.5759-1.4483-2.5707-2.4322l-1.5093-1.4928c-1.006-.9949-1.851-1.8307-2.4862-2.5709-.664-.7737-1.2234-1.5814-1.5448-2.5584-.4899-1.4893-.4936-3.0958-.0107-4.5874.3167-.9785.8724-1.7887 1.5327-2.5656.6318-.7432 1.4729-1.5829 2.4742-2.5825l19.1132-19.0816c.8256-.8243 2.1632-.8232 2.9875.0025z"/></g></svg>