<svg id="Capa_1" enable-background="new 0 0 512.001 512.001" height="512" viewBox="0 0 512.001 512.001" width="512" xmlns="http://www.w3.org/2000/svg"><g><path d="m486.424 396.38c-.56.54-37.152 35.065-99.401 60.106l-12.449-124.486h31.426c4.863 0 9.434-2.358 12.246-6.343s3.516-9.067 1.904-13.667c-7.883-22.269-28.275-37.163-51.502-39.194l-6.085-60.796h13.437c8.262 0 15 6.724 15 15 0 8.291 6.709 15 15 15s15-6.709 15-15c0-24.814-20.186-45-45-45h-221.162l-47.464-125.403c-8.848-26.602-30.118-47.491-56.895-55.884-5.391-1.758-11.338-.19-15.264 3.882-3.955 4.072-5.244 10.034-3.369 15.381l107.737 293.903c-.125.564-.449 1.038-.507 1.628l-14.099 140.98c-62.249-25.042-98.841-59.566-99.401-60.106-5.859-5.83-15.322-5.845-21.182.044-5.859 5.859-5.859 15.337 0 21.182 3.867 3.853 97.182 94.395 251.605 94.395s247.738-90.542 251.605-94.395c5.859-5.845 5.859-15.322 0-21.182-5.858-5.889-15.32-5.875-21.18-.045zm-135.972-4.379h-188.903l6-60h176.902zm-18.012-180 6.006 60.004-148.978.026-23.09-60.029h166.062zm-178.36 254.692 4.47-44.692h194.901l4.47 44.692c-29.637 9.034-63.71 15.308-101.92 15.308s-72.283-6.274-101.921-15.308z"/></g></svg>